<svg id="Layer_1" data-name="Layer 1" xmlns="http://www.w3.org/2000/svg" viewBox="0 0 186 229"><defs><style>.cls-1{fill:#f6901e;}.cls-2{fill:#7b7b7a;}.cls-2,.cls-3,.cls-4,.cls-5{stroke:#fff;stroke-miterlimit:10;}.cls-3{stroke-width:3px;}.cls-5,.cls-6{fill:#787877;}.cls-5{stroke-width:1.06px;}.cls-7{fill:#fff;}</style></defs><title>Artboard 1</title><path class="cls-1" d="M94.87,45.72l68.49,18.53s13.87,75.62-69.74,137.31c0,0-77.47-53.17-69.32-137.17Z"/><path class="cls-2" d="M94.68,23.87c-4.29,1.28-91.74,24-91.74,24s-17.27,112.24,90.3,163.31v.32l.33-.16.33.16v-.32c107.57-51.06,90.3-163.31,90.3-163.31s-87.41-23.38-89.55-24Zm-.07,17,73.34,19.78c8.35,74.5-44.18,124.25-74.38,146.33-30.2-22.09-82.73-71.84-74.38-146.33Z"/><path d="M94,199.26a.49.49,0,0,0-.94-.09c-.26.65-1,2-1.68,2.18-.12,0-.31,0-.58-.26-.43-.44-.13-1.36.2-2.42.6-1.87,1.42-4.44-1.19-6.58a5.82,5.82,0,0,0-6.57-.62c-2.66,1.4-4.26,4.72-4.26,8.9q0,.38,0,.74l.06.56c.86,6.45,8.06,7.84,8.13,7.86h.09a.49.49,0,0,0,.09-1,9.44,9.44,0,0,1-1.21-.34,8.4,8.4,0,0,1-4.62-12.09,4.65,4.65,0,0,1,2.16-2.06c1.57-.64,2.9-.58,3.65.15s.85,2.12.25,3.67c-1,2.5-.2,4,.35,4.6a3.69,3.69,0,0,0,3.65,1.09C94,203.1,94.25,200.54,94,199.26Z"/><path d="M31.88,188.58a11.21,11.21,0,0,0-2.11,1.53l-.07.07a4.42,4.42,0,0,0-1.62,3.45,3.41,3.41,0,0,0,2.13,2.88,2.68,2.68,0,0,0,2.82-.33.51.51,0,0,0,.14-.62.49.49,0,0,0-.76-.14,1.72,1.72,0,0,1-1.83.19,2.43,2.43,0,0,1-1.52-2,2.63,2.63,0,0,1,.29-1.33,3.35,3.35,0,0,1,2-1.69,17.6,17.6,0,0,1,12.59.69,84.58,84.58,0,0,1,12.93,8.2,88.17,88.17,0,0,0,12.65,8.08,17.37,17.37,0,0,0,.81,2.66,33.84,33.84,0,0,1-5.56-2c-11.95-5.66-18.72-6.41-22-2.43-2,2.48-1.49,4.46-.42,5.41a3.22,3.22,0,0,0,4.47-.38.5.5,0,0,0,.08-.6.49.49,0,0,0-.78-.08,2.25,2.25,0,0,1-3.12.33,2.1,2.1,0,0,1-.44-2.43c3.66-4.24,9.41-2,18.1,1.33,1.55.6,3.15,1.21,4.85,1.84a38.34,38.34,0,0,0,6.1,1.69c2.31,3.79,6.16,6.88,11.46,9.11A51.87,51.87,0,0,0,101,225.6a.49.49,0,0,0,0-1A50.76,50.76,0,0,1,83.5,221q-7.23-3-10.58-8a36.32,36.32,0,0,0,5.49.42,44.07,44.07,0,0,0,7.9-.57.49.49,0,0,0-.21-1,54.8,54.8,0,0,1-14.59-1.44,16.14,16.14,0,0,1-.84-2.42,35.49,35.49,0,0,0,15.05,3.25c.68,0,2.6.14,2.54-.44s-4.41-1.68-4.65-1.77a42,42,0,0,1-13.44-8.16c1.19-18.3,15.61-18.86,17.32-18.86,4.39,0,14,3.53,14,14s-7,12.4-7.33,12.48a.49.49,0,0,0,.25.95c.08,0,8.06-2.27,8.06-13.43s-10.3-15-15-15c-1.78,0-16.61.56-18.24,18.93a24.16,24.16,0,0,1-3.76-5,16.69,16.69,0,0,1-2.1-11.45,2.9,2.9,0,0,1,1.55-2.22c1.47-.59,3.44.67,3.46.69a.49.49,0,0,0,.66-.71,4.67,4.67,0,0,0-3.58-1.78h0a4.45,4.45,0,0,0-3.51,1.77c-1.07,1.34-4,6.49,3,16.52a24.2,24.2,0,0,0,4.18,4.51c0,.36,0,.73,0,1.1s0,.89,0,1.33a31.21,31.21,0,0,1-7.47-5.44C51.48,189,39,184.5,31.88,188.58ZM70.09,203.4c0-.11,0-.21,0-.31a44.78,44.78,0,0,0,10.56,6,51.94,51.94,0,0,1-10.47-3.78C70.12,204.65,70.09,204,70.09,203.4Z"/><path d="M90.66,205.8a3.07,3.07,0,1,0,2.78,3.05A2.93,2.93,0,0,0,90.66,205.8Zm0,5.13a2.09,2.09,0,1,1,1.8-2.07A2,2,0,0,1,90.66,210.93Z"/><path d="M105.12,228a3.07,3.07,0,1,0-2.78-3.05A2.93,2.93,0,0,0,105.12,228Zm0-5.13a2.09,2.09,0,1,1-1.8,2.07A2,2,0,0,1,105.12,222.87Z"/><path d="M97,203.59a3.69,3.69,0,0,0,3.65-1.09c.55-.64,1.32-2.1.35-4.6-.6-1.56-.51-2.93.25-3.67s2.08-.79,3.65-.15a4.65,4.65,0,0,1,2.16,2.06,8.4,8.4,0,0,1-4.62,12.09,9.44,9.44,0,0,1-1.21.34.49.49,0,0,0,.09,1h.09c.08,0,7.27-1.41,8.13-7.86l.06-.56q0-.36,0-.74c0-4.18-1.59-7.51-4.26-8.9a5.82,5.82,0,0,0-6.57.62c-2.6,2.14-1.78,4.7-1.19,6.58.34,1.06.63,2,.2,2.42-.27.28-.46.28-.58.26-.67-.13-1.42-1.53-1.68-2.18a.49.49,0,0,0-.94.09C94.35,200.54,94.56,203.1,97,203.59Z"/><path d="M126.91,199.29a31.21,31.21,0,0,1-7.47,5.44c0-.44,0-.88,0-1.33s0-.74,0-1.1a24.2,24.2,0,0,0,4.18-4.51c7-10,4.08-15.18,3-16.52a4.45,4.45,0,0,0-3.51-1.77h0a4.67,4.67,0,0,0-3.58,1.78.49.49,0,0,0,.66.71s2-1.27,3.46-.69a2.9,2.9,0,0,1,1.55,2.22,16.69,16.69,0,0,1-2.1,11.45,24.16,24.16,0,0,1-3.76,5c-1.62-18.37-16.46-18.93-18.24-18.93-4.7,0-15,3.78-15,15s8,13.41,8.06,13.43a.49.49,0,0,0,.25-.95c-.3-.08-7.33-2.1-7.33-12.48s9.63-14,14-14c1.71,0,16.13.55,17.32,18.86A42,42,0,0,1,105,209.08c-.24.09-4.57,1-4.65,1.77s1.86.44,2.54.44A35.49,35.49,0,0,0,117.93,208a16.14,16.14,0,0,1-.84,2.42,54.8,54.8,0,0,1-14.59,1.44.49.49,0,0,0-.21,1,44.07,44.07,0,0,0,7.9.57,36.32,36.32,0,0,0,5.49-.42q-3.34,4.93-10.58,8a50.76,50.76,0,0,1-17.53,3.62.49.49,0,0,0,0,1,51.87,51.87,0,0,0,17.91-3.69c5.3-2.23,9.15-5.31,11.46-9.11a38.34,38.34,0,0,0,6.1-1.69c1.7-.62,3.3-1.24,4.85-1.84,8.69-3.35,14.44-5.57,18.1-1.33a2.1,2.1,0,0,1-.44,2.43,2.25,2.25,0,0,1-3.12-.33.49.49,0,0,0-.78.08.5.5,0,0,0,.08.6,3.22,3.22,0,0,0,4.47.38c1.08-.94,1.62-2.93-.42-5.41-3.25-4-10-3.22-22,2.43a33.84,33.84,0,0,1-5.56,2,17.37,17.37,0,0,0,.81-2.66,88.17,88.17,0,0,0,12.65-8.08,84.58,84.58,0,0,1,12.93-8.2,17.6,17.6,0,0,1,12.59-.69,3.35,3.35,0,0,1,2,1.69,2.63,2.63,0,0,1,.29,1.33,2.43,2.43,0,0,1-1.52,2,1.72,1.72,0,0,1-1.83-.19.49.49,0,0,0-.76.14.51.51,0,0,0,.14.62,2.68,2.68,0,0,0,2.82.33,3.41,3.41,0,0,0,2.13-2.88,4.42,4.42,0,0,0-1.62-3.45l-.07-.07a11.21,11.21,0,0,0-2.11-1.53C149.65,184.5,137.11,189,126.91,199.29Zm-8.5,6A51.94,51.94,0,0,1,107.94,209a44.78,44.78,0,0,0,10.56-6c0,.1,0,.21,0,.31C118.51,204,118.47,204.65,118.42,205.26Z"/><path d="M95.16,208.85a2.79,2.79,0,1,0,2.78-3.05A2.93,2.93,0,0,0,95.16,208.85Zm1,0a1.82,1.82,0,1,1,1.8,2.07A2,2,0,0,1,96.14,208.85Z"/><path d="M86.26,224.95A2.79,2.79,0,1,0,83.47,228,2.93,2.93,0,0,0,86.26,224.95Zm-1,0a1.82,1.82,0,1,1-1.8-2.07A2,2,0,0,1,85.27,224.95Z"/><path class="cls-3" d="M72.21,17.78,68,29s23.2,7.94,26.46,12.11c0,0,13.23-9.06,26.86-11.91l-4.17-11.6L94.6,22.26Z"/><polyline class="cls-4" points="47.99 10.46 94.9 19.62 141.2 10.76 94.29 1.3 47.69 10.46"/><path class="cls-5" d="M60.67,27.47h1.52a1.24,1.24,0,0,1,1.24,1.24V50.55a0,0,0,0,1,0,0H59.52a0,0,0,0,1,0,0V28.62A1.15,1.15,0,0,1,60.67,27.47Z"/><circle class="cls-6" cx="61.48" cy="21.81" r="2.16"/><polygon class="cls-6" points="62.1 29.48 60.85 29.48 60.85 12.98 62.1 13.21 62.1 29.48"/><path class="cls-7" d="M71,117A11.89,11.89,0,0,1,62.24,121a12.68,12.68,0,0,1-5.6-1.25,14.42,14.42,0,0,1-4.5-3.37,15.79,15.79,0,0,1-3-4.92,16.12,16.12,0,0,1-1.08-5.86,15.79,15.79,0,0,1,1.08-5.81,15.38,15.38,0,0,1,3-4.84,14.05,14.05,0,0,1,4.54-3.29,14.9,14.9,0,0,1,13,.59A11.64,11.64,0,0,1,74.08,97l-3.65,2.63A8.47,8.47,0,0,0,67,96a9.46,9.46,0,0,0-4.75-1.23,8.19,8.19,0,0,0-3.86.91,9.48,9.48,0,0,0-3,2.42,10.82,10.82,0,0,0-1.89,3.5,13.17,13.17,0,0,0-.66,4.16,12.17,12.17,0,0,0,.74,4.28,11.16,11.16,0,0,0,2,3.48,9.65,9.65,0,0,0,3.08,2.35,8.68,8.68,0,0,0,3.86.87A9.62,9.62,0,0,0,67,115.64a12.87,12.87,0,0,0,4-3.35v-3.22H64.7v-3.52H75v15.23H71Z"/><path class="cls-7" d="M81.46,90.65l9.08,24.14,9-24.14h5.05l-12,30.12H88.51L76.41,90.65Z"/><rect class="cls-1" x="67.19" y="102.78" width="3.97" height="18.21"/><polygon class="cls-1" points="89.26 107.88 93.23 107.88 86.88 124.27 82.91 124.27 89.26 107.88"/><polygon class="cls-7" points="130.68 90.74 123.66 109.49 116.61 90.74 108.61 90.74 108.61 120.59 113.29 120.59 113.29 94.7 121.63 115.47 125.7 115.47 133.99 94.74 133.99 120.59 138.68 120.59 138.68 90.74 130.68 90.74"/><polygon class="cls-1" points="122.22 102.96 126.19 102.96 119.84 119.35 115.86 119.35 122.22 102.96"/><rect class="cls-1" x="62.72" y="104.1" width="5.75" height="5.39"/></svg>